<?xml version="1.0" encoding="utf-8"?>
<!-- Generator: Adobe Illustrator 16.0.0, SVG Export Plug-In . SVG Version: 6.00 Build 0)  -->
<!DOCTYPE svg PUBLIC "-//W3C//DTD SVG 1.1//EN" "http://www.w3.org/Graphics/SVG/1.1/DTD/svg11.dtd">
<svg version="1.1" id="web-en" xmlns="http://www.w3.org/2000/svg" xmlns:xlink="http://www.w3.org/1999/xlink" x="0px" y="0px"
	 width="220px" height="44px" viewBox="0.5 0.5 220 44" enable-background="new 0.5 0.5 220 44" xml:space="preserve">
<g>
	<g>
		
			<linearGradient id="SVGID_1_" gradientUnits="userSpaceOnUse" x1="-374.3906" y1="265.3623" x2="-356.1973" y2="265.3623" gradientTransform="matrix(1 0 0 -1 539.0098 287.4004)">
			<stop  offset="0" style="stop-color:#00AEBB"/>
			<stop  offset="1" style="stop-color:#2EB6AA"/>
		</linearGradient>
		<path fill="url(#SVGID_1_)" d="M173.715,14.223c-2.721,0-5.154,1.2-6.822,3.092v-5.651h-2.273v11.653
			c0,5.022,4.072,9.095,9.098,9.095c5.02,0,9.096-4.071,9.096-9.095C182.811,18.294,178.736,14.223,173.715,14.223z M173.715,30.14
			c-3.768,0-6.822-3.055-6.822-6.82c0-3.769,3.057-6.821,6.822-6.821s6.82,3.054,6.82,6.821
			C180.535,27.085,177.48,30.14,173.715,30.14z"/>
		
			<linearGradient id="SVGID_2_" gradientUnits="userSpaceOnUse" x1="-354.1777" y1="264.1318" x2="-335.9863" y2="264.1318" gradientTransform="matrix(1 0 0 -1 539.0098 287.4004)">
			<stop  offset="0" style="stop-color:#00AEBB"/>
			<stop  offset="1" style="stop-color:#2EB6AA"/>
		</linearGradient>
		<path fill="url(#SVGID_2_)" d="M193.928,14.173c-5.021,0-9.096,4.071-9.096,9.096c0,5.022,4.072,9.096,9.096,9.096
			c5.025,0,9.096-4.072,9.096-9.096S198.951,14.173,193.928,14.173z M193.928,30.09c-3.768,0-6.82-3.054-6.82-6.821
			s3.055-6.822,6.82-6.822c3.768,0,6.82,3.054,6.82,6.822S197.695,30.09,193.928,30.09z"/>
		
			<linearGradient id="SVGID_3_" gradientUnits="userSpaceOnUse" x1="-481.8838" y1="262.832" x2="-463.6943" y2="262.832" gradientTransform="matrix(1 0 0 -1 539.0098 287.4004)">
			<stop  offset="0" style="stop-color:#00AEBB"/>
			<stop  offset="1" style="stop-color:#2EB6AA"/>
		</linearGradient>
		<path fill="url(#SVGID_3_)" d="M66.222,14.194c-5.022,0-9.096,4.073-9.096,9.096v11.654h2.273v-5.652
			c1.666,1.895,4.102,3.094,6.821,3.094c5.023,0,9.095-4.072,9.095-9.096C75.315,18.267,71.245,14.194,66.222,14.194z
			 M66.222,30.112c-3.768,0-6.821-3.055-6.821-6.822c0-3.767,3.055-6.821,6.821-6.821s6.82,3.055,6.82,6.821
			C73.042,27.058,69.987,30.112,66.222,30.112z"/>
		
			<linearGradient id="SVGID_4_" gradientUnits="userSpaceOnUse" x1="-460.0498" y1="264.1113" x2="-457.7773" y2="264.1113" gradientTransform="matrix(1 0 0 -1 539.0098 287.4004)">
			<stop  offset="0" style="stop-color:#00AEBB"/>
			<stop  offset="1" style="stop-color:#2EB6AA"/>
		</linearGradient>
		<rect x="78.96" y="14.194" fill="url(#SVGID_4_)" width="2.272" height="18.191"/>
		
			<linearGradient id="SVGID_5_" gradientUnits="userSpaceOnUse" x1="-460.708" y1="278.6621" x2="-457.0703" y2="278.6621" gradientTransform="matrix(1 0 0 -1 539.0098 287.4004)">
			<stop  offset="0" style="stop-color:#00AEBB"/>
			<stop  offset="1" style="stop-color:#2EB6AA"/>
		</linearGradient>
		<circle fill="url(#SVGID_5_)" cx="80.121" cy="8.738" r="1.819"/>
		
			<linearGradient id="SVGID_6_" gradientUnits="userSpaceOnUse" x1="-453.2285" y1="264.1113" x2="-437.7666" y2="264.1113" gradientTransform="matrix(1 0 0 -1 539.0098 287.4004)">
			<stop  offset="0" style="stop-color:#00AEBB"/>
			<stop  offset="1" style="stop-color:#2EB6AA"/>
		</linearGradient>
		<path fill="url(#SVGID_6_)" d="M93.513,14.194c-2.137,0-4.061,0.871-5.458,2.271v-2.271h-2.273v7.3v10.892h2.273v-10.46
			c0-3.013,2.444-5.457,5.458-5.457s5.456,2.443,5.456,5.455v0.003v5.474v4.983h2.274c0,0,0-10.461,0-10.462l-0.021-0.43
			C100.996,17.427,97.636,14.194,93.513,14.194z"/>
		
			<linearGradient id="SVGID_7_" gradientUnits="userSpaceOnUse" x1="-428.084" y1="262.8027" x2="-409.8926" y2="262.8027" gradientTransform="matrix(1 0 0 -1 539.0098 287.4004)">
			<stop  offset="0" style="stop-color:#00AEBB"/>
			<stop  offset="1" style="stop-color:#2EB6AA"/>
		</linearGradient>
		<path fill="url(#SVGID_7_)" d="M120.021,14.223c-5.023,0-9.096,4.072-9.096,9.096v11.654h2.273v-5.652
			c1.668,1.893,4.102,3.092,6.82,3.092c5.023,0,9.098-4.071,9.098-9.094C129.117,18.294,125.045,14.223,120.021,14.223z
			 M120.021,30.14c-3.768,0-6.822-3.055-6.822-6.82c0-3.769,3.055-6.821,6.822-6.821s6.82,3.054,6.82,6.821
			C126.842,27.085,123.789,30.14,120.021,30.14z"/>
		
			<linearGradient id="SVGID_8_" gradientUnits="userSpaceOnUse" x1="-406.25" y1="264.083" x2="-403.9766" y2="264.083" gradientTransform="matrix(1 0 0 -1 539.0098 287.4004)">
			<stop  offset="0" style="stop-color:#00AEBB"/>
			<stop  offset="1" style="stop-color:#2EB6AA"/>
		</linearGradient>
		<rect x="132.76" y="14.223" fill="url(#SVGID_8_)" width="2.273" height="18.189"/>
		
			<linearGradient id="SVGID_9_" gradientUnits="userSpaceOnUse" x1="-406.9063" y1="278.6357" x2="-403.2676" y2="278.6357" gradientTransform="matrix(1 0 0 -1 539.0098 287.4004)">
			<stop  offset="0" style="stop-color:#00AEBB"/>
			<stop  offset="1" style="stop-color:#2EB6AA"/>
		</linearGradient>
		<circle fill="url(#SVGID_9_)" cx="133.922" cy="8.765" r="1.819"/>
		
			<linearGradient id="SVGID_10_" gradientUnits="userSpaceOnUse" x1="-399.4258" y1="264.082" x2="-383.9668" y2="264.082" gradientTransform="matrix(1 0 0 -1 539.0098 287.4004)">
			<stop  offset="0" style="stop-color:#00AEBB"/>
			<stop  offset="1" style="stop-color:#2EB6AA"/>
		</linearGradient>
		<path fill="url(#SVGID_10_)" d="M147.313,14.223c-2.137,0-4.063,0.87-5.457,2.27v-2.27h-2.271v7.299v10.891h2.271v-10.46
			c0-3.014,2.443-5.456,5.457-5.456c3.016,0,5.457,2.442,5.457,5.455v0.003v5.474v4.983h2.273c0,0,0-10.459,0-10.46l-0.021-0.431
			C154.795,17.453,151.436,14.223,147.313,14.223z"/>
		
			<linearGradient id="SVGID_11_" gradientUnits="userSpaceOnUse" x1="-336.5449" y1="264.083" x2="-319.5898" y2="264.083" gradientTransform="matrix(1 0 0 -1 539.0098 287.4004)">
			<stop  offset="0" style="stop-color:#00AEBB"/>
			<stop  offset="1" style="stop-color:#2EB6AA"/>
		</linearGradient>
		<polygon fill="url(#SVGID_11_)" points="219.42,32.412 212.307,23.312 219.414,14.223 216.684,14.223 210.943,21.568 
			205.201,14.223 202.473,14.223 209.578,23.312 202.465,32.412 205.193,32.412 210.943,25.058 216.693,32.412 		"/>
	</g>
	<g>
		<g>
			<path fill="#FFFFFF" d="M20.526,33.521l-8.584-3.974l0.16,3.597c0.028,0.654-0.452,0.967-1.071,0.703l-1.506-0.463
				c-0.617-0.268-1.143-1.013-1.17-1.662l-0.15-17.555c-0.028-0.654,0.453-0.966,1.07-0.698l10.954,4.525
				c0.618,0.265,1.144,1.005,1.171,1.659l0.197,13.163C21.626,33.472,21.145,33.786,20.526,33.521z"/>
			<path fill="#FFFFFF" d="M27.133,30.628l-3.134-1.449l-0.121-11.178c-0.028-0.65-0.552-1.395-1.171-1.658l-7.882-3.256
				l-0.017-1.811c-0.023-0.649,0.452-0.966,1.071-0.699l10.955,4.525c0.62,0.268,1.14,1.013,1.168,1.663l0.199,13.166
				C28.229,30.581,27.751,30.892,27.133,30.628z"/>
			<path fill="#FFFFFF" d="M33.325,27.737l-3.14-1.447l-0.119-11.178c-0.024-0.655-0.55-1.395-1.169-1.663l-7.88-3.253l-0.017-1.807
				c-0.027-0.653,0.453-0.968,1.07-0.701l10.953,4.524c0.622,0.268,1.146,1.01,1.172,1.664l0.199,13.161
				C34.425,27.688,33.941,28.005,33.325,27.737z"/>
			
				<linearGradient id="SVGID_12_" gradientUnits="userSpaceOnUse" x1="-524.4292" y1="259.5742" x2="-524.4292" y2="267.668" gradientTransform="matrix(1 0 0 -1 539.0098 287.4004)">
				<stop  offset="0" style="stop-color:#00AEBB"/>
				<stop  offset="1" style="stop-color:#2EB6AA"/>
			</linearGradient>
			<path fill="url(#SVGID_12_)" d="M16.646,21.574L12.518,19.8c-0.453-0.196-0.827,0.041-0.827,0.53v4.415
				c0,0.484,0.374,1.043,0.827,1.238l4.129,1.774c0.456,0.195,0.825-0.041,0.825-0.526v-4.418
				C17.473,22.327,17.104,21.77,16.646,21.574z"/>
			
				<linearGradient id="SVGID_13_" gradientUnits="userSpaceOnUse" x1="-519.1846" y1="245.2031" x2="-519.1846" y2="284.5967" gradientTransform="matrix(1 0 0 -1 539.0098 287.4004)">
				<stop  offset="0" style="stop-color:#00AEBB"/>
				<stop  offset="1" style="stop-color:#2EB6AA"/>
			</linearGradient>
			<path fill="url(#SVGID_13_)" d="M36.415,9.852c0,0-12.021-5.334-14.498-6.438c-1.704-0.754-1.649-0.889-3.351,0.048
				c-2.631,1.447-16.144,8.877-16.144,8.877c-0.509,0.379-0.843,0.977-0.843,1.658v18.249c0,0,0.027,0.921,1.199,1.459
				c10.67,4.976,15.639,7.243,17.039,7.882c1.606,0.729,1.689,0.916,3.326-0.061c1.53-0.912,6.999-4.189,13.673-8.209
				c0.855-0.516,1.21-0.978,1.215-1.918c0.004-2.891,0.039-19.476,0.039-19.476C38.073,10.335,36.415,9.852,36.415,9.852z
				 M20.526,33.521l-8.584-3.974l0.16,3.597c0.028,0.654-0.452,0.967-1.071,0.703l-1.506-0.463c-0.617-0.268-1.143-1.013-1.17-1.662
				l-0.15-17.555c-0.028-0.654,0.453-0.966,1.07-0.698l10.954,4.525c0.618,0.265,1.144,1.005,1.171,1.659l0.197,13.163
				C21.626,33.472,21.145,33.786,20.526,33.521z M27.133,30.628l-3.134-1.449l-0.121-11.178c-0.028-0.65-0.552-1.395-1.171-1.658
				l-7.882-3.256l-0.017-1.811c-0.023-0.649,0.452-0.966,1.071-0.699l10.955,4.525c0.62,0.268,1.14,1.013,1.168,1.663l0.199,13.166
				C28.229,30.581,27.751,30.892,27.133,30.628z M33.325,27.737l-3.14-1.447l-0.119-11.178c-0.024-0.655-0.55-1.395-1.169-1.663
				l-7.88-3.253l-0.017-1.807c-0.027-0.653,0.453-0.968,1.07-0.701l10.953,4.524c0.622,0.268,1.146,1.01,1.172,1.664l0.199,13.161
				C34.425,27.688,33.941,28.005,33.325,27.737z"/>
		</g>
	</g>
</g>
</svg>
