<?xml version="1.0" encoding="utf-8"?>
<!-- Generator: Adobe Illustrator 16.0.0, SVG Export Plug-In . SVG Version: 6.00 Build 0)  -->
<!DOCTYPE svg PUBLIC "-//W3C//DTD SVG 1.1//EN" "http://www.w3.org/Graphics/SVG/1.1/DTD/svg11.dtd">
<svg version="1.1" id="web-en" xmlns="http://www.w3.org/2000/svg" xmlns:xlink="http://www.w3.org/1999/xlink" x="0px" y="0px"
	 width="79px" height="84px" viewBox="0.5 -19.5 79 84" enable-background="new 0.5 -19.5 79 84" xml:space="preserve">
<g>
	<g>
		<g>
			<path fill="#FFFFFF" d="M41.49,45.94l-18.258-8.452l0.341,7.65c0.06,1.392-0.962,2.056-2.279,1.495l-3.202-0.984
				c-1.313-0.569-2.431-2.153-2.489-3.535L15.283,4.776c-0.061-1.391,0.964-2.055,2.276-1.485l23.3,9.626
				c1.313,0.563,2.432,2.137,2.489,3.527l0.42,27.996C43.829,45.837,42.806,46.506,41.49,45.94z"/>
			<path fill="#FFFFFF" d="M55.542,39.788l-6.666-3.082l-0.258-23.775c-0.06-1.383-1.173-2.968-2.49-3.527L29.364,2.479
				l-0.036-3.853c-0.049-1.38,0.962-2.054,2.278-1.485l23.302,9.624c1.319,0.569,2.424,2.153,2.484,3.538l0.424,28.002
				C57.874,39.688,56.856,40.348,55.542,39.788z"/>
			<path fill="#FFFFFF" d="M68.713,33.64l-6.678-3.078L61.781,6.785c-0.052-1.393-1.17-2.967-2.486-3.538l-16.76-6.918l-0.036-3.843
				c-0.058-1.39,0.965-2.06,2.277-1.491l23.297,9.622c1.323,0.569,2.436,2.149,2.492,3.54l0.424,27.993
				C71.052,33.535,70.023,34.209,68.713,33.64z"/>
			
				<linearGradient id="SVGID_1_" gradientUnits="userSpaceOnUse" x1="-510.165" y1="253.5723" x2="-510.165" y2="270.79" gradientTransform="matrix(1 0 0 -1 539.0098 287.4004)">
				<stop  offset="0" style="stop-color:#00AEBB"/>
				<stop  offset="1" style="stop-color:#2EB6AA"/>
			</linearGradient>
			<path fill="url(#SVGID_1_)" d="M33.237,20.53l-8.781-3.774c-0.965-0.416-1.759,0.088-1.759,1.128v9.391
				c0,1.031,0.794,2.219,1.759,2.634l8.781,3.774c0.971,0.416,1.756-0.087,1.756-1.119v-9.397
				C34.995,22.132,34.21,20.947,33.237,20.53z"/>
			
				<linearGradient id="SVGID_2_" gradientUnits="userSpaceOnUse" x1="-499.0103" y1="223.0059" x2="-499.0103" y2="306.7939" gradientTransform="matrix(1 0 0 -1 539.0098 287.4004)">
				<stop  offset="0" style="stop-color:#00AEBB"/>
				<stop  offset="1" style="stop-color:#2EB6AA"/>
			</linearGradient>
			<path fill="url(#SVGID_2_)" d="M75.285-4.401c0,0-25.567-11.347-30.837-13.694c-3.625-1.604-3.509-1.891-7.127,0.103
				C31.726-14.915,2.984,0.888,2.984,0.888C1.902,1.693,1.192,2.965,1.192,4.415v38.814c0,0,0.058,1.959,2.55,3.103
				c22.695,10.584,33.264,15.407,36.242,16.766c3.416,1.55,3.594,1.947,7.074-0.13c3.255-1.939,14.887-8.91,29.082-17.46
				c1.819-1.096,2.573-2.078,2.583-4.08c0.009-6.148,0.084-41.423,0.084-41.423C78.812-3.375,75.285-4.401,75.285-4.401z
				 M41.49,45.94l-18.258-8.452l0.341,7.65c0.06,1.392-0.962,2.056-2.279,1.495l-3.202-0.984c-1.313-0.569-2.431-2.153-2.489-3.535
				L15.283,4.776c-0.061-1.391,0.964-2.055,2.276-1.485l23.3,9.626c1.313,0.563,2.432,2.137,2.489,3.527l0.42,27.996
				C43.829,45.837,42.806,46.506,41.49,45.94z M55.542,39.788l-6.666-3.082l-0.258-23.775c-0.06-1.383-1.173-2.968-2.49-3.527
				L29.364,2.479l-0.036-3.853c-0.049-1.38,0.962-2.054,2.278-1.485l23.302,9.624c1.319,0.569,2.424,2.153,2.484,3.538l0.424,28.002
				C57.874,39.688,56.856,40.348,55.542,39.788z M68.713,33.64l-6.678-3.078L61.781,6.785c-0.052-1.393-1.17-2.967-2.486-3.538
				l-16.76-6.918l-0.036-3.843c-0.058-1.39,0.965-2.06,2.277-1.491l23.297,9.622c1.323,0.569,2.436,2.149,2.492,3.54l0.424,27.993
				C71.052,33.535,70.023,34.209,68.713,33.64z"/>
		</g>
	</g>
</g>
</svg>
